<?xml version="1.0" encoding="UTF-8"?>
<svg xmlns="http://www.w3.org/2000/svg" xmlns:xlink="http://www.w3.org/1999/xlink" width="275.37pt" height="100pt" viewBox="0 0 275.37 100" version="1.1">
<defs>
<clipPath id="clip1">
  <path d="M 27 0 L 84 0 L 84 93 L 27 93 Z M 27 0 "/>
</clipPath>
<clipPath id="clip2">
  <path d="M 45.097656 37.726563 C 45.097656 37.726563 51.113281 60.34375 33.503906 73.226563 L 27.207031 92.984375 C 27.207031 92.984375 40.230469 70.363281 52.972656 65.070313 C 52.972656 65.070313 59.128906 61.492188 67.144531 65.929688 C 67.144531 65.929688 78.164063 71.371094 83.890625 76.09375 L 56.898438 0 Z M 45.097656 37.726563 "/>
</clipPath>
<clipPath id="clip3">
  <path d="M 51 28 L 55 28 L 55 32 L 51 32 Z M 51 28 "/>
</clipPath>
<clipPath id="clip4">
  <path d="M 45.097656 37.726563 C 45.097656 37.726563 51.113281 60.34375 33.503906 73.226563 L 27.207031 92.984375 C 27.207031 92.984375 40.230469 70.363281 52.972656 65.070313 C 52.972656 65.070313 59.128906 61.492188 67.144531 65.929688 C 67.144531 65.929688 78.164063 71.371094 83.890625 76.09375 L 56.898438 0 Z M 45.097656 37.726563 "/>
</clipPath>
<clipPath id="clip5">
  <path d="M 62 70 L 66 70 L 66 74 L 62 74 Z M 62 70 "/>
</clipPath>
<clipPath id="clip6">
  <path d="M 45.097656 37.726563 C 45.097656 37.726563 51.113281 60.34375 33.503906 73.226563 L 27.207031 92.984375 C 27.207031 92.984375 40.230469 70.363281 52.972656 65.070313 C 52.972656 65.070313 59.128906 61.492188 67.144531 65.929688 C 67.144531 65.929688 78.164063 71.371094 83.890625 76.09375 L 56.898438 0 Z M 45.097656 37.726563 "/>
</clipPath>
<clipPath id="clip7">
  <path d="M 27 47 L 28 47 L 28 51 L 27 51 Z M 27 47 "/>
</clipPath>
<clipPath id="clip8">
  <path d="M 45.097656 37.726563 C 45.097656 37.726563 51.113281 60.34375 33.503906 73.226563 L 27.207031 92.984375 C 27.207031 92.984375 40.230469 70.363281 52.972656 65.070313 C 52.972656 65.070313 59.128906 61.492188 67.144531 65.929688 C 67.144531 65.929688 78.164063 71.371094 83.890625 76.09375 L 56.898438 0 Z M 45.097656 37.726563 "/>
</clipPath>
<clipPath id="clip9">
  <path d="M 31 75 L 35 75 L 35 79 L 31 79 Z M 31 75 "/>
</clipPath>
<clipPath id="clip10">
  <path d="M 45.097656 37.726563 C 45.097656 37.726563 51.113281 60.34375 33.503906 73.226563 L 27.207031 92.984375 C 27.207031 92.984375 40.230469 70.363281 52.972656 65.070313 C 52.972656 65.070313 59.128906 61.492188 67.144531 65.929688 C 67.144531 65.929688 78.164063 71.371094 83.890625 76.09375 L 56.898438 0 Z M 45.097656 37.726563 "/>
</clipPath>
<clipPath id="clip11">
  <path d="M 56 85 L 61 85 L 61 89 L 56 89 Z M 56 85 "/>
</clipPath>
<clipPath id="clip12">
  <path d="M 45.097656 37.726563 C 45.097656 37.726563 51.113281 60.34375 33.503906 73.226563 L 27.207031 92.984375 C 27.207031 92.984375 40.230469 70.363281 52.972656 65.070313 C 52.972656 65.070313 59.128906 61.492188 67.144531 65.929688 C 67.144531 65.929688 78.164063 71.371094 83.890625 76.09375 L 56.898438 0 Z M 45.097656 37.726563 "/>
</clipPath>
<clipPath id="clip13">
  <path d="M 66 55 L 71 55 L 71 60 L 66 60 Z M 66 55 "/>
</clipPath>
<clipPath id="clip14">
  <path d="M 45.097656 37.726563 C 45.097656 37.726563 51.113281 60.34375 33.503906 73.226563 L 27.207031 92.984375 C 27.207031 92.984375 40.230469 70.363281 52.972656 65.070313 C 52.972656 65.070313 59.128906 61.492188 67.144531 65.929688 C 67.144531 65.929688 78.164063 71.371094 83.890625 76.09375 L 56.898438 0 Z M 45.097656 37.726563 "/>
</clipPath>
<clipPath id="clip15">
  <path d="M 30 4 L 35 4 L 35 8 L 30 8 Z M 30 4 "/>
</clipPath>
<clipPath id="clip16">
  <path d="M 45.097656 37.726563 C 45.097656 37.726563 51.113281 60.34375 33.503906 73.226563 L 27.207031 92.984375 C 27.207031 92.984375 40.230469 70.363281 52.972656 65.070313 C 52.972656 65.070313 59.128906 61.492188 67.144531 65.929688 C 67.144531 65.929688 78.164063 71.371094 83.890625 76.09375 L 56.898438 0 Z M 45.097656 37.726563 "/>
</clipPath>
<clipPath id="clip17">
  <path d="M 273 24 L 275.371094 24 L 275.371094 36 L 273 36 Z M 273 24 "/>
</clipPath>
</defs>
<g id="surface1">
<path style=" stroke:none;fill-rule:nonzero;fill:rgb(34.098816%,34.498596%,35.299683%);fill-opacity:1;" d="M 99.734375 64.628906 L 103.84375 64.628906 C 108.183594 64.628906 109.605469 60.414063 109.605469 56.59375 C 109.605469 52.792969 108.183594 48.582031 103.84375 48.582031 L 99.734375 48.582031 Z M 97.796875 46.667969 L 103.84375 46.667969 C 109.449219 46.667969 111.59375 51.554688 111.59375 56.59375 C 111.59375 61.65625 109.449219 66.539063 103.84375 66.539063 L 97.796875 66.539063 "/>
<path style=" stroke:none;fill-rule:nonzero;fill:rgb(34.098816%,34.498596%,35.299683%);fill-opacity:1;" d="M 116.582031 52.640625 L 116.582031 61.476563 C 116.582031 63.078125 117.824219 64.859375 119.992188 64.859375 C 121.722656 64.859375 123.144531 63.570313 123.144531 63.570313 L 123.144531 52.640625 L 125.03125 52.640625 L 125.03125 64.082031 C 125.03125 64.082031 123.402344 66.695313 119.992188 66.695313 C 116.507813 66.695313 114.695313 63.980469 114.695313 61.476563 L 114.695313 52.640625 "/>
<path style=" stroke:none;fill-rule:nonzero;fill:rgb(34.098816%,34.498596%,35.299683%);fill-opacity:1;" d="M 130.019531 59.589844 C 130.019531 62.121094 131.105469 64.859375 133.894531 64.859375 C 136.710938 64.859375 137.769531 62.121094 137.769531 59.589844 C 137.769531 57.058594 136.710938 54.316406 133.894531 54.316406 C 131.105469 54.316406 130.019531 57.058594 130.019531 59.589844 M 130.019531 64.523438 L 130.019531 66.539063 L 128.132813 66.539063 L 128.132813 46.671875 L 130.019531 46.671875 L 130.019531 54.652344 C 130.460938 53.828125 131.933594 52.484375 133.894531 52.484375 C 138.003906 52.484375 139.65625 55.972656 139.65625 59.589844 C 139.65625 63.207031 138.003906 66.695313 133.894531 66.695313 C 131.933594 66.695313 130.460938 65.351563 130.019531 64.523438 "/>
<path style=" stroke:none;fill-rule:nonzero;fill:rgb(34.098816%,34.498596%,35.299683%);fill-opacity:1;" d="M 150.921875 59.589844 C 150.378906 59.382813 149.371094 59.046875 147.664063 59.046875 C 145.214844 59.046875 144.128906 60.492188 144.128906 62.070313 C 144.128906 63.128906 144.695313 64.859375 147.046875 64.859375 C 149.269531 64.859375 150.871094 63.050781 150.921875 59.589844 M 152.808594 59.332031 L 152.808594 66.539063 L 150.921875 66.539063 L 150.921875 64.523438 C 150.484375 65.351563 149.011719 66.695313 147.046875 66.695313 C 143.480469 66.695313 142.238281 64.1875 142.238281 62.070313 C 142.238281 59.433594 144.027344 57.265625 147.664063 57.265625 C 149.425781 57.265625 150.921875 58.039063 150.921875 58.039063 C 150.820313 55.789063 150.304688 54.316406 147.875 54.316406 C 146.839844 54.316406 145.730469 54.601563 144.152344 55.6875 L 143.042969 54.242188 C 144.695313 52.976563 146.324219 52.484375 147.875 52.484375 C 152.730469 52.484375 152.808594 56.464844 152.808594 59.332031 "/>
<path style=" stroke:none;fill-rule:nonzero;fill:rgb(34.098816%,34.498596%,35.299683%);fill-opacity:1;" d="M 156.222656 66.539063 L 158.109375 66.539063 L 158.109375 52.640625 L 156.222656 52.640625 Z M 157.175781 48.015625 C 157.875 48.015625 158.417969 48.558594 158.417969 49.253906 C 158.417969 49.953125 157.875 50.496094 157.175781 50.496094 C 156.480469 50.496094 155.910156 49.953125 155.910156 49.253906 C 155.910156 48.558594 156.480469 48.015625 157.175781 48.015625 "/>
<path style=" stroke:none;fill-rule:nonzero;fill:rgb(34.098816%,34.498596%,35.299683%);fill-opacity:1;" d="M 180.613281 58.167969 C 179.679688 54.859375 178.699219 51.734375 177.71875 49.046875 C 177.613281 48.761719 177.382813 48.582031 177.074219 48.582031 L 176.8125 48.582031 C 176.503906 48.582031 176.269531 48.761719 176.167969 49.046875 C 175.1875 51.734375 174.203125 54.859375 173.273438 58.167969 Z M 172.730469 60.082031 C 172.136719 62.199219 171.59375 64.394531 171.078125 66.539063 L 169.011719 66.539063 C 169.503906 64.34375 171.878906 54.78125 174.4375 48.167969 C 174.824219 47.160156 175.730469 46.667969 176.8125 46.667969 L 177.074219 46.667969 C 178.160156 46.667969 179.0625 47.160156 179.449219 48.167969 C 182.007813 54.78125 184.382813 64.34375 184.875 66.539063 L 182.808594 66.539063 C 182.292969 64.394531 181.722656 62.226563 181.15625 60.082031 "/>
<path style=" stroke:none;fill-rule:nonzero;fill:rgb(34.098816%,34.498596%,35.299683%);fill-opacity:1;" d="M 202.574219 66.539063 L 202.574219 57.703125 C 202.574219 56.101563 201.800781 54.316406 199.65625 54.316406 C 197.847656 54.316406 196.996094 55.273438 196.785156 55.84375 C 196.941406 56.4375 197.019531 57.109375 197.019531 57.703125 L 197.019531 66.539063 L 195.160156 66.539063 L 195.160156 57.703125 C 195.160156 56.050781 194.308594 54.316406 192.242188 54.316406 C 190.328125 54.316406 189.605469 55.558594 189.605469 55.558594 L 189.605469 66.539063 L 187.71875 66.539063 L 187.71875 55.117188 C 187.71875 55.117188 188.804688 52.484375 192.242188 52.484375 C 193.867188 52.484375 195.082031 53.15625 195.855469 54.058594 C 196.503906 53.335938 197.742188 52.484375 199.65625 52.484375 C 203.144531 52.484375 204.460938 55.195313 204.460938 57.703125 L 204.460938 66.539063 "/>
<path style=" stroke:none;fill-rule:nonzero;fill:rgb(34.098816%,34.498596%,35.299683%);fill-opacity:1;" d="M 209.246094 58.8125 L 216.246094 58.8125 C 216.398438 58.8125 216.453125 58.761719 216.453125 58.605469 C 216.453125 56.902344 215.675781 54.320313 212.9375 54.320313 C 210.382813 54.320313 209.425781 56.566406 209.246094 58.8125 M 207.304688 59.589844 C 207.304688 55.972656 208.882813 52.484375 212.9375 52.484375 C 217.019531 52.484375 218.363281 55.996094 218.363281 58.582031 C 218.363281 60.082031 217.691406 60.648438 216.246094 60.648438 L 209.269531 60.648438 C 209.347656 62.765625 210.507813 64.859375 213.480469 64.859375 C 214.746094 64.859375 215.933594 64.5 217.019531 63.800781 L 218.003906 65.296875 C 216.398438 66.433594 214.769531 66.695313 213.480469 66.695313 C 208.753906 66.695313 207.304688 63.101563 207.304688 59.589844 "/>
<path style=" stroke:none;fill-rule:nonzero;fill:rgb(34.098816%,34.498596%,35.299683%);fill-opacity:1;" d="M 228.183594 54.886719 C 227.5625 54.5 226.890625 54.320313 226.246094 54.320313 C 224.515625 54.320313 223.09375 55.609375 223.09375 55.609375 L 223.09375 66.539063 L 221.207031 66.539063 L 221.207031 55.09375 C 221.207031 55.09375 222.835938 52.484375 226.246094 52.484375 C 227.226563 52.484375 228.207031 52.71875 229.011719 53.179688 "/>
<path style=" stroke:none;fill-rule:nonzero;fill:rgb(34.098816%,34.498596%,35.299683%);fill-opacity:1;" d="M 232.421875 66.539063 L 234.308594 66.539063 L 234.308594 52.640625 L 232.421875 52.640625 Z M 233.378906 48.015625 C 234.078125 48.015625 234.617188 48.558594 234.617188 49.253906 C 234.617188 49.953125 234.078125 50.496094 233.378906 50.496094 C 232.679688 50.496094 232.113281 49.953125 232.113281 49.253906 C 232.113281 48.558594 232.679688 48.015625 233.378906 48.015625 "/>
<path style=" stroke:none;fill-rule:nonzero;fill:rgb(34.098816%,34.498596%,35.299683%);fill-opacity:1;" d="M 243.222656 66.695313 C 239.140625 66.695313 237.460938 63.207031 237.460938 59.589844 C 237.460938 55.972656 239.140625 52.484375 243.222656 52.484375 L 243.582031 52.484375 C 245.003906 52.484375 246.425781 53.078125 247.742188 54.394531 L 246.425781 55.714844 C 245.160156 54.472656 244.203125 54.320313 243.582031 54.320313 L 243.222656 54.320313 C 240.433594 54.320313 239.347656 57.054688 239.347656 59.589844 C 239.347656 62.121094 240.433594 64.859375 243.222656 64.859375 L 243.582031 64.859375 C 244.203125 64.859375 245.160156 64.703125 246.425781 63.464844 L 247.742188 64.78125 C 246.425781 66.097656 245.003906 66.695313 243.582031 66.695313 "/>
<path style=" stroke:none;fill-rule:nonzero;fill:rgb(34.098816%,34.498596%,35.299683%);fill-opacity:1;" d="M 259.011719 59.589844 C 258.464844 59.382813 257.460938 59.046875 255.753906 59.046875 C 253.300781 59.046875 252.214844 60.492188 252.214844 62.070313 C 252.214844 63.128906 252.78125 64.859375 255.132813 64.859375 C 257.355469 64.859375 258.957031 63.050781 259.011719 59.589844 M 260.894531 59.332031 L 260.894531 66.539063 L 259.011719 66.539063 L 259.011719 64.523438 C 258.570313 65.351563 257.097656 66.695313 255.132813 66.695313 C 251.566406 66.695313 250.328125 64.1875 250.328125 62.070313 C 250.328125 59.433594 252.113281 57.265625 255.753906 57.265625 C 257.511719 57.265625 259.011719 58.039063 259.011719 58.039063 C 258.90625 55.789063 258.390625 54.316406 255.960938 54.316406 C 254.925781 54.316406 253.816406 54.601563 252.238281 55.6875 L 251.128906 54.242188 C 252.78125 52.976563 254.410156 52.484375 255.960938 52.484375 C 260.820313 52.484375 260.894531 56.464844 260.894531 59.332031 "/>
<path style=" stroke:none;fill-rule:nonzero;fill:rgb(34.098816%,34.498596%,35.299683%);fill-opacity:1;" d="M 272.445313 66.539063 L 272.445313 57.703125 C 272.445313 56.101563 271.207031 54.316406 269.035156 54.316406 C 267.304688 54.316406 265.882813 55.609375 265.882813 55.609375 L 265.882813 66.539063 L 263.996094 66.539063 L 263.996094 55.09375 C 263.996094 55.09375 265.625 52.484375 269.035156 52.484375 C 272.523438 52.484375 274.332031 55.195313 274.332031 57.703125 L 274.332031 66.539063 "/>
<path style=" stroke:none;fill-rule:nonzero;fill:rgb(34.098816%,34.498596%,35.299683%);fill-opacity:1;" d="M 109.140625 85.660156 C 108.210938 82.351563 107.226563 79.226563 106.246094 76.539063 C 106.144531 76.257813 105.910156 76.074219 105.601563 76.074219 L 105.34375 76.074219 C 105.035156 76.074219 104.800781 76.257813 104.695313 76.539063 C 103.714844 79.226563 102.730469 82.351563 101.800781 85.660156 Z M 101.257813 87.574219 C 100.664063 89.691406 100.121094 91.886719 99.605469 94.03125 L 97.539063 94.03125 C 98.03125 91.835938 100.40625 82.277344 102.964844 75.660156 C 103.351563 74.652344 104.257813 74.164063 105.34375 74.164063 L 105.601563 74.164063 C 106.6875 74.164063 107.589844 74.652344 107.976563 75.660156 C 110.535156 82.277344 112.910156 91.835938 113.402344 94.03125 L 111.335938 94.03125 C 110.820313 91.886719 110.25 89.71875 109.683594 87.574219 "/>
<path style=" stroke:none;fill-rule:nonzero;fill:rgb(34.098816%,34.498596%,35.299683%);fill-opacity:1;" d="M 121.75 94.1875 C 117.667969 94.1875 115.988281 90.699219 115.988281 87.082031 C 115.988281 83.464844 117.667969 79.976563 121.75 79.976563 L 122.113281 79.976563 C 123.53125 79.976563 124.953125 80.570313 126.269531 81.890625 L 124.953125 83.207031 C 123.6875 81.964844 122.730469 81.808594 122.113281 81.808594 L 121.75 81.808594 C 118.960938 81.808594 117.875 84.550781 117.875 87.082031 C 117.875 89.613281 118.960938 92.351563 121.75 92.351563 L 122.113281 92.351563 C 122.730469 92.351563 123.6875 92.199219 124.953125 90.957031 L 126.269531 92.273438 C 124.953125 93.59375 123.53125 94.1875 122.113281 94.1875 "/>
<path style=" stroke:none;fill-rule:nonzero;fill:rgb(34.098816%,34.498596%,35.299683%);fill-opacity:1;" d="M 137.539063 87.082031 C 136.996094 86.875 135.988281 86.539063 134.28125 86.539063 C 131.828125 86.539063 130.742188 87.984375 130.742188 89.5625 C 130.742188 90.621094 131.3125 92.351563 133.664063 92.351563 C 135.882813 92.351563 137.484375 90.542969 137.539063 87.082031 M 139.425781 86.824219 L 139.425781 94.03125 L 137.539063 94.03125 L 137.539063 92.015625 C 137.097656 92.84375 135.625 94.1875 133.664063 94.1875 C 130.097656 94.1875 128.855469 91.679688 128.855469 89.5625 C 128.855469 86.925781 130.640625 84.757813 134.28125 84.757813 C 136.039063 84.757813 137.539063 85.53125 137.539063 85.53125 C 137.433594 83.28125 136.917969 81.8125 134.488281 81.8125 C 133.453125 81.8125 132.34375 82.09375 130.769531 83.179688 L 129.65625 81.734375 C 131.3125 80.46875 132.9375 79.976563 134.488281 79.976563 C 139.347656 79.976563 139.425781 83.957031 139.425781 86.824219 "/>
<path style=" stroke:none;fill-rule:nonzero;fill:rgb(34.098816%,34.498596%,35.299683%);fill-opacity:1;" d="M 144.152344 87.082031 C 144.152344 89.613281 145.214844 92.351563 148.027344 92.351563 C 150.820313 92.351563 151.90625 89.613281 151.90625 87.082031 C 151.90625 84.550781 150.820313 81.8125 148.027344 81.8125 C 145.214844 81.8125 144.152344 84.550781 144.152344 87.082031 M 142.265625 87.082031 C 142.265625 83.464844 143.921875 79.976563 148.027344 79.976563 C 149.992188 79.976563 151.464844 81.320313 151.90625 82.144531 L 151.90625 74.164063 L 153.789063 74.164063 L 153.789063 94.03125 L 151.90625 94.03125 L 151.90625 92.015625 C 151.464844 92.84375 149.992188 94.1875 148.027344 94.1875 C 143.921875 94.1875 142.265625 90.699219 142.265625 87.082031 "/>
<path style=" stroke:none;fill-rule:nonzero;fill:rgb(34.098816%,34.498596%,35.299683%);fill-opacity:1;" d="M 158.570313 86.304688 L 165.574219 86.304688 C 165.730469 86.304688 165.78125 86.253906 165.78125 86.101563 C 165.78125 84.394531 165.007813 81.808594 162.265625 81.808594 C 159.710938 81.808594 158.753906 84.058594 158.570313 86.304688 M 156.632813 87.082031 C 156.632813 83.464844 158.210938 79.976563 162.265625 79.976563 C 166.347656 79.976563 167.691406 83.492188 167.691406 86.074219 C 167.691406 87.574219 167.019531 88.140625 165.574219 88.140625 L 158.597656 88.140625 C 158.675781 90.261719 159.839844 92.351563 162.808594 92.351563 C 164.074219 92.351563 165.265625 91.992188 166.347656 91.292969 L 167.332031 92.792969 C 165.730469 93.929688 164.101563 94.1875 162.808594 94.1875 C 158.082031 94.1875 156.632813 90.59375 156.632813 87.082031 "/>
<path style=" stroke:none;fill-rule:nonzero;fill:rgb(34.098816%,34.498596%,35.299683%);fill-opacity:1;" d="M 185.394531 94.03125 L 185.394531 85.195313 C 185.394531 83.59375 184.617188 81.808594 182.472656 81.808594 C 180.664063 81.808594 179.8125 82.765625 179.605469 83.335938 C 179.757813 83.929688 179.835938 84.601563 179.835938 85.195313 L 179.835938 94.03125 L 177.976563 94.03125 L 177.976563 85.195313 C 177.976563 83.542969 177.125 81.808594 175.058594 81.808594 C 173.144531 81.808594 172.421875 83.050781 172.421875 83.050781 L 172.421875 94.03125 L 170.535156 94.03125 L 170.535156 82.613281 C 170.535156 82.613281 171.621094 79.976563 175.058594 79.976563 C 176.6875 79.976563 177.902344 80.648438 178.675781 81.554688 C 179.320313 80.828125 180.5625 79.976563 182.472656 79.976563 C 185.960938 79.976563 187.277344 82.6875 187.277344 85.195313 L 187.277344 94.03125 "/>
<path style=" stroke:none;fill-rule:nonzero;fill:rgb(34.098816%,34.498596%,35.299683%);fill-opacity:1;" d="M 192.265625 80.132813 L 192.265625 87.082031 C 192.265625 89.613281 192.757813 92.351563 195.652344 92.351563 C 198.519531 92.351563 199.007813 89.148438 199.007813 87.082031 L 199.007813 80.132813 L 200.894531 80.132813 L 200.894531 94.289063 C 200.816406 97.726563 198.984375 100 195.574219 100 L 195.316406 100 C 193.714844 100 192.292969 99.585938 190.847656 98.863281 L 191.648438 97.261719 C 193.378906 98.113281 194.617188 98.191406 195.316406 98.191406 L 195.574219 98.191406 C 197.847656 98.191406 199.007813 96.433594 199.007813 94.289063 L 199.007813 92.015625 C 198.519531 93.230469 197.046875 94.1875 195.652344 94.1875 C 191.3125 94.1875 190.378906 90.699219 190.378906 87.082031 L 190.378906 80.132813 "/>
<path style=" stroke:none;fill-rule:nonzero;fill:rgb(69.410706%,12.548828%,16.078186%);fill-opacity:1;" d="M 33.074219 1.230469 L 1.726563 91.265625 C 1.726563 91.265625 26.636719 77.949219 32.359375 72.945313 C 32.359375 72.945313 44.8125 64.925781 44.8125 46.890625 C 44.8125 46.890625 45.671875 35.296875 33.074219 1.230469 "/>
<path style=" stroke:none;fill-rule:nonzero;fill:rgb(0%,19.999695%,63.136292%);fill-opacity:1;" d="M 45.101563 37.726563 C 45.101563 37.726563 51.113281 60.34375 33.503906 73.226563 L 27.207031 92.984375 C 27.207031 92.984375 40.230469 70.367188 52.972656 65.070313 C 52.972656 65.070313 59.128906 61.492188 67.144531 65.929688 C 67.144531 65.929688 78.164063 71.371094 83.890625 76.089844 L 56.898438 0 "/>
<g clip-path="url(#clip1)" clip-rule="nonzero">
<g clip-path="url(#clip2)" clip-rule="nonzero">
<path style=" stroke:none;fill-rule:nonzero;fill:rgb(100%,100%,100%);fill-opacity:1;" d="M 155.859375 -41.320313 L 155.855469 -41.320313 L 155.859375 -41.367188 L 155.816406 -41.386719 L 155.816406 -41.390625 L 155.867188 -41.386719 Z M 1.503906 5.335938 L 1.523438 5.347656 L 1.523438 5.398438 L 1.492188 5.421875 Z M 61.734375 -74.066406 L 61.726563 -74.046875 L 61.652344 -74.066406 L 61.652344 -74.054688 L 61.644531 -74.066406 L 61.644531 -74.078125 Z M 153.808594 58.324219 L 153.824219 58.324219 L 153.835938 58.253906 L 153.851563 58.253906 L 153.835938 58.351563 L 153.816406 58.34375 Z M 58.433594 87.136719 L 58.472656 87.152344 L 58.492188 87.175781 L 58.390625 87.160156 Z M 156.734375 -37.90625 L 156.144531 -40.332031 L 166.507813 -23.882813 Z M 21.089844 -42.375 L 21.082031 -42.371094 L 21.082031 -42.359375 L 6.457031 -25.410156 L 33.460938 -61.058594 Z M 113.203125 -70.167969 L 113.152344 -70.191406 L 113.144531 -70.167969 L 113.070313 -70.199219 L 113.070313 -70.21875 L 113.039063 -70.21875 L 92.25 -78.957031 L 134.921875 -64.128906 Z M 152.917969 -43.390625 L 143.160156 -57.421875 L 154.988281 -42 Z M 168.050781 8.804688 L 168.058594 8.761719 L 168.050781 8.761719 L 168.042969 8.691406 L 168.078125 8.691406 L 168.058594 8.632813 L 169.9375 -13.835938 L 169.027344 31.34375 Z M 154.855469 54.890625 L 165.363281 41.027344 L 154.15625 57.332031 Z M 150.835938 60.207031 L 152.96875 58.882813 L 140.425781 73.933594 Z M 110.015625 85.371094 L 110.035156 85.371094 L 110.023438 85.371094 L 110.035156 85.371094 L 131.847656 80.25 L 89.03125 93.210938 Z M 62.003906 87.089844 L 78.785156 92.925781 L 59.402344 87.1875 Z M 55.699219 84.90625 L 57.644531 86.546875 L 39.28125 79.203125 Z M 19.105469 53.832031 L 30.644531 72.863281 L 5.261719 36.410156 Z M 2.664063 8.726563 L 2.324219 26.109375 L 1.796875 6.34375 Z M 2.804688 2.0625 L 1.816406 4.46875 L 3.164063 -15.691406 Z M 58.867188 -71.910156 L 42.375 -66.921875 L 60.835938 -73.460938 Z M 65.238281 -73.84375 L 62.695313 -74.027344 L 81.890625 -78.875 Z M 160.246094 -23.441406 L 156.941406 -37.070313 L 169.734375 -18.703125 Z M 167.996094 8.761719 L 167.996094 8.703125 L 168.003906 8.695313 L 168.03125 8.691406 L 168.019531 8.761719 Z M 138.152344 68.03125 L 150.109375 60.644531 L 136.570313 78.507813 Z M 109.921875 85.335938 L 109.964844 85.332031 L 110 85.34375 L 110.015625 85.371094 L 109.933594 85.34375 Z M 44.351563 75.261719 L 55.050781 84.347656 L 33.898438 77.007813 Z M 2.730469 5.511719 L 2.695313 7.816406 L 1.847656 5.496094 Z M 21.097656 -42.347656 L 21.097656 -42.308594 L 21.082031 -42.269531 L 21.078125 -42.269531 L 21.082031 -42.359375 Z M 31.972656 -50.882813 L 21.867188 -42.984375 L 35.824219 -64.097656 Z M 113.121094 -70.136719 L 113.0625 -70.148438 L 113.0625 -70.167969 L 113.132813 -70.167969 Z M 124.605469 -62.476563 L 113.953125 -69.652344 L 138.375 -62.898438 Z M 154.734375 -40.792969 L 153.449219 -42.632813 L 155.441406 -41.285156 Z M 154.921875 -40.515625 L 155.640625 -41.011719 L 156.210938 -38.667969 Z M 164.808594 -4.726563 L 169.988281 -17.5 L 167.847656 7.757813 Z M 164.277344 21.992188 L 167.796875 9.671875 L 168.917969 34.910156 Z M 158.957031 40.589844 L 168.605469 36.246094 L 155.085938 54.082031 Z M 152.945313 57.40625 L 154.316406 55.597656 L 153.648438 57.941406 Z M 152.753906 57.675781 L 153.449219 58.195313 L 151.390625 59.464844 Z M 121.78125 78.113281 L 135.507813 79.085938 L 110.867188 84.847656 Z M 96.1875 85.878906 L 108.921875 85.425781 L 85.390625 94.257813 Z M 76.855469 86.566406 L 83.972656 94.402344 L 62.851563 87.066406 Z M 58.960938 86.046875 L 61.144531 86.796875 L 58.667969 86.882813 Z M 58.742188 85.960938 L 58.441406 86.800781 L 56.570313 85.207031 Z M 29.640625 62.769531 L 32.929688 76.03125 L 19.933594 54.535156 Z M 19.128906 53.777344 L 19.136719 53.769531 L 19.175781 53.785156 L 19.175781 53.828125 L 19.167969 53.832031 L 19.125 53.828125 Z M 14.386719 40.847656 L 18.738281 52.820313 L 3.082031 33.167969 Z M 7.765625 22.71875 L 2.511719 31.925781 L 2.960938 9.53125 Z M 2.730469 5.277344 L 1.847656 5.253906 L 2.78125 2.96875 Z M 8.453125 -11.6875 L 3.121094 1.28125 L 3.578125 -21.074219 Z M 15.804688 -29.585938 L 4.203125 -22.355469 L 20.648438 -41.367188 Z M 47.113281 -62.730469 L 36.726563 -64.886719 L 58.1875 -71.382813 Z M 61.898438 -72.832031 L 59.746094 -72.183594 L 61.644531 -73.667969 Z M 62.214844 -72.921875 L 61.957031 -73.765625 L 64.386719 -73.582031 Z M 80.070313 -72.71875 L 66.089844 -73.78125 L 87.496094 -80.265625 Z M 99.359375 -71.257813 L 88.851563 -80.09375 L 112.132813 -70.285156 Z M 140.570313 -51.703125 L 139.421875 -62.242188 L 152.21875 -43.875 Z M 159.855469 -23.640625 L 142.894531 -32.132813 L 154.675781 -40.332031 L 156.410156 -37.839844 Z M 77.246094 86.546875 L 95.671875 85.90625 L 84.519531 94.53125 Z M 36.25 -64.734375 L 46.871094 -62.535156 L 32.261719 -51.113281 L 36.234375 -64.71875 Z M 140.289063 -51.90625 L 124.953125 -62.246094 L 139.101563 -62.675781 Z M 154.480469 -40.613281 L 142.699219 -32.414063 L 140.621094 -51.277344 L 152.738281 -43.113281 Z M 164.710938 -5.128906 L 160.328125 -23.097656 L 170.019531 -18.257813 Z M 159.058594 40.21875 L 164.140625 22.484375 L 168.902344 35.769531 Z M 152.695313 57.222656 L 141.273438 48.554688 L 158.5625 40.757813 L 154.554688 54.78125 Z M 138.21875 67.589844 L 141.046875 48.808594 L 152.503906 57.476563 L 150.664063 59.914063 Z M 122.097656 77.921875 L 137.886719 68.1875 L 136.257813 78.910156 L 136.226563 78.917969 Z M 59.058594 85.746094 L 63.78125 72.183594 L 76.5625 86.25 L 62.003906 86.761719 Z M 44.78125 75.199219 L 63.554688 72.082031 L 58.847656 85.671875 L 55.914063 84.65625 Z M 14.210938 40.402344 L 2.535156 32.4375 L 7.890625 23.042969 Z M 3.039063 5.519531 L 17.421875 5.8125 L 7.984375 22.339844 L 2.972656 8.617188 Z M 8.644531 -11.308594 L 17.40625 5.566406 L 3.039063 5.28125 L 3.109375 2.179688 Z M 15.609375 -29.101563 L 8.597656 -12.046875 L 3.636719 -21.628906 Z M 22.960938 -34.03125 L 16.277344 -29.878906 L 21.148438 -41.703125 Z M 29.585938 -42.699219 L 21.640625 -42.375 L 31.820313 -50.335938 Z M 61.988281 -72.539063 L 66.15625 -58.777344 L 47.546875 -62.640625 L 59.078125 -71.652344 Z M 79.773438 -72.410156 L 66.464844 -58.910156 L 62.296875 -72.625 L 65.238281 -73.519531 Z M 98.851563 -71.292969 L 80.453125 -72.683594 L 88.03125 -80.375 Z M 105.808594 -65.832031 L 99.785156 -70.902344 L 112.535156 -69.929688 Z M 116.144531 -62.21875 L 113.394531 -69.621094 L 124.019531 -62.464844 Z M 164.484375 -4.597656 L 161.4375 2.957031 L 154.835938 -2.714844 L 142.859375 -31.859375 L 159.9375 -23.308594 Z M 161.621094 3.113281 L 164.59375 -4.195313 L 167.613281 8.257813 Z M 161.425781 14.0625 L 167.613281 9.171875 L 164.089844 21.464844 Z M 121.527344 77.882813 L 113.363281 77.304688 L 116.6875 69.324219 L 140.808594 48.863281 L 137.941406 67.753906 Z M 113.28125 77.507813 L 121.210938 78.078125 L 110.230469 84.847656 Z M 102.855469 80.71875 L 109.40625 85.078125 L 96.640625 85.535156 Z M 29.867188 62.53125 L 27.890625 54.578125 L 36.511719 55.28125 L 63.359375 71.855469 L 44.519531 74.972656 Z M 44.085938 75.042969 L 33.421875 76.808594 L 30.003906 63.082031 Z M 27.605469 54.558594 L 29.496094 62.21875 L 19.726563 53.914063 Z M 21.378906 45.617188 L 19.234375 53.222656 L 14.851563 41.175781 Z M 47.300781 -62.445313 L 66.007813 -58.574219 L 38.453125 -43.050781 L 29.808594 -42.714844 L 32.105469 -50.5625 Z M 140.335938 -51.464844 L 142.4375 -32.480469 L 119.246094 -53.828125 L 116.222656 -61.980469 L 124.367188 -62.234375 Z M 29.515625 -42.441406 L 27.96875 -37.15625 L 27.960938 -37.15625 L 23.257813 -34.222656 L 21.378906 -42.117188 Z M 103.136719 80.5 L 107.515625 77.113281 L 107.515625 77.101563 L 113.015625 77.496094 L 109.882813 85.007813 Z M 110.308594 -62.035156 L 106.085938 -65.597656 L 112.972656 -69.796875 L 115.78125 -62.210938 Z M 159.433594 8.519531 L 161.488281 3.453125 L 167.632813 8.722656 L 161.3125 13.722656 Z M 26.199219 48.898438 L 27.523438 54.25 L 19.441406 53.601563 L 21.640625 45.796875 Z M 27.824219 -36.726563 L 25.214844 -26.03125 L 23.335938 -33.921875 Z M 37.964844 -42.78125 L 28.230469 -37.304688 L 29.746094 -42.457031 Z M 109.867188 -62.035156 L 98.902344 -61.210938 L 105.824219 -65.4375 Z M 118.691406 -54.328125 L 110.5625 -61.816406 L 115.867188 -61.96875 Z M 137.078125 -17.941406 L 142.585938 -31.804688 L 154.351563 -3.128906 Z M 159.097656 8.449219 L 129.804688 7.863281 L 129.96875 -0.0625 L 136.9375 -17.589844 L 154.644531 -2.414063 Z M 159.308594 8.207031 L 155.121094 -2.007813 L 161.300781 3.285156 Z M 154.691406 18.929688 L 159.285156 8.933594 L 161.066406 13.910156 Z M 125.707031 47.679688 L 140.644531 48.632813 L 116.925781 68.742188 Z M 107.496094 76.746094 L 99.015625 48.726563 L 106.535156 46.449219 L 125.421875 47.65625 L 116.503906 69.109375 Z M 107.75 76.90625 L 116.257813 69.6875 L 113.101563 77.28125 Z M 96.125 75.820313 L 107.054688 77.09375 L 102.871094 80.328125 Z M 59.828125 57.160156 L 63.523438 71.621094 L 37.128906 55.328125 Z M 26.574219 48.808594 L 50.605469 32.074219 L 55.054688 38.480469 L 59.746094 56.839844 L 36.574219 54.976563 Z M 26.527344 49.105469 L 35.945313 54.929688 L 27.816406 54.273438 Z M 23.925781 37.664063 L 26.105469 48.511719 L 21.71875 45.511719 Z M 61.804688 -43.738281 L 56.382813 -25.589844 L 51.636719 -19.320313 L 28.304688 -37.019531 L 38.582031 -42.8125 Z M 61.882813 -44.003906 L 39.074219 -43.078125 L 66.160156 -58.339844 Z M 126.996094 -31.875 L 108.136719 -31.417969 L 100.640625 -34.019531 L 110.261719 -61.695313 L 118.90625 -53.742188 Z M 127.371094 -31.886719 L 119.460938 -53.230469 L 142.28125 -32.234375 Z M 135.933594 33.757813 L 129.640625 15.890625 L 129.804688 8.058594 L 159.089844 8.652344 L 154.203125 19.335938 Z M 136.046875 34.109375 L 153.894531 20.023438 L 140.996094 48.164063 Z M 76.234375 62.5625 L 91.285156 51.054688 L 98.757813 48.800781 L 107.238281 76.824219 L 95.601563 75.476563 Z M 75.953125 62.769531 L 94.867188 75.386719 L 64.109375 71.808594 Z M 30.398438 14.679688 L 45.992188 25.4375 L 50.449219 31.855469 L 26.410156 48.574219 L 24.089844 37.058594 Z M 30.121094 14.480469 L 23.957031 36.410156 L 17.839844 6.007813 Z M 30.453125 -2.582031 L 17.863281 5.386719 L 25.183594 -24.699219 Z M 28.132813 -36.800781 L 51.476563 -19.113281 L 46.773438 -12.898438 L 30.757813 -2.773438 L 25.363281 -25.40625 Z M 78.195313 -48.988281 L 66.734375 -58.496094 L 97.601563 -60.820313 Z M 110.0625 -61.757813 L 100.464844 -34.085938 L 93.070313 -36.65625 L 78.488281 -48.753906 L 98.355469 -60.878906 Z M 130.558594 -23.527344 L 142.324219 -31.730469 L 136.898438 -18.089844 Z M 68.726563 57.960938 L 75.695313 62.605469 L 63.996094 71.539063 Z M 68.492188 57.863281 L 63.765625 71.46875 L 60.117188 57.179688 Z M 130.347656 -23.832031 L 127.441406 -31.675781 L 142.128906 -32.015625 Z M 130.425781 -23.160156 L 136.765625 -17.734375 L 129.976563 -0.65625 Z M 126.683594 7.644531 L 113.324219 -11.53125 L 130.070313 -23.203125 L 129.601563 0.300781 Z M 126.839844 7.808594 L 129.59375 0.886719 L 129.445313 7.855469 Z M 129.304688 14.925781 L 126.863281 7.996094 L 129.445313 8.039063 Z M 129.28125 39.449219 L 135.820313 34.289063 L 140.671875 48.09375 Z M 129.027344 39.703125 L 140.492188 48.386719 L 125.796875 47.445313 Z M 128.734375 39.722656 L 125.53125 47.421875 L 107.171875 46.253906 Z M 98.230469 45.683594 L 112.335938 27.070313 L 128.601563 39.382813 L 106.140625 46.179688 Z M 98.167969 45.910156 L 105.507813 46.382813 L 98.902344 48.375 Z M 92.101563 50.441406 L 97.914063 46.003906 L 98.65625 48.457031 Z M 68.328125 57.535156 L 60.03125 56.859375 L 55.5 39.097656 Z M 53.265625 30.390625 L 75.320313 38.050781 L 68.628906 57.339844 L 55.246094 38.113281 Z M 52.996094 30.394531 L 54.816406 37.492188 L 50.898438 31.867188 Z M 46.832031 26.03125 L 52.851563 30.179688 L 50.742188 31.648438 Z M 32.472656 6.125 L 30.203125 14.210938 L 18.066406 5.828125 Z M 32.457031 5.867188 L 18.078125 5.585938 L 30.519531 -2.292969 Z M 53.808594 -17.351563 L 47.628906 -13.445313 L 51.765625 -18.898438 Z M 53.980469 -17.550781 L 51.921875 -19.105469 L 56.085938 -24.609375 Z M 70.664063 -43.832031 L 76.578125 -24.304688 L 54.222656 -17.539063 L 56.496094 -25.136719 Z M 70.390625 -44.078125 L 56.789063 -26.121094 L 62.050781 -43.742188 Z M 70.511719 -44.347656 L 62.132813 -44.011719 L 66.347656 -58.117188 Z M 99.5 -31.3125 L 93.855469 -36.007813 L 100.347656 -33.746094 Z M 99.671875 -31.21875 L 100.519531 -33.683594 L 107.113281 -31.394531 Z M 129.871094 -23.496094 L 113.121094 -11.835938 L 99.765625 -31.019531 L 107.671875 -31.199219 Z M 129.957031 -23.839844 L 108.691406 -31.222656 L 127.066406 -31.667969 Z M 128.824219 39.097656 L 112.546875 26.769531 L 126.652344 8.175781 L 129.28125 15.699219 Z M 129.175781 39.078125 L 129.621094 16.660156 L 135.695313 33.9375 Z M 68.949219 57.449219 L 75.648438 38.160156 L 97.703125 45.824219 L 91.359375 50.664063 Z M 69.078125 57.777344 L 90.550781 51.28125 L 75.992188 62.394531 Z M 68.609375 57.804688 L 68.609375 57.773438 L 68.636719 57.757813 L 68.683594 57.777344 L 68.703125 57.820313 L 68.667969 57.828125 Z M 33.011719 6.171875 L 53.421875 6.585938 L 52.949219 29.933594 L 46.398438 25.410156 Z M 32.71875 6.398438 L 45.550781 24.828125 L 30.464844 14.402344 Z M 32.753906 5.59375 L 30.824219 -2.484375 L 46.296875 -12.277344 Z M 53.898438 -17.09375 L 53.421875 6.253906 L 33.011719 5.835938 L 47.164063 -12.824219 Z M 70.828125 -44.492188 L 66.675781 -58.179688 L 77.953125 -48.835938 Z M 71.144531 -44.261719 L 78.238281 -48.59375 L 92.324219 -36.914063 Z M 99.253906 -31.171875 L 76.921875 -24.410156 L 71.007813 -43.941406 L 93.117188 -36.261719 Z M 130.320313 -23.554688 L 130.308594 -23.582031 L 130.285156 -23.601563 L 130.289063 -23.621094 L 130.363281 -23.621094 L 130.347656 -23.542969 Z M 129.066406 39.578125 L 129.019531 39.554688 L 129.019531 39.519531 L 129.035156 39.511719 L 129.054688 39.46875 L 129.078125 39.46875 L 129.085938 39.519531 L 129.078125 39.558594 Z M 32.585938 5.941406 L 32.609375 5.96875 L 32.621094 6.023438 L 32.59375 6.039063 L 32.574219 6.035156 L 32.574219 5.96875 Z M 70.703125 -44.34375 L 70.757813 -44.316406 L 70.746094 -44.28125 L 70.695313 -44.28125 L 70.679688 -44.277344 L 70.65625 -44.289063 L 70.648438 -44.34375 L 70.664063 -44.347656 Z M 86.539063 6.664063 L 99.566406 -30.824219 L 112.902344 -11.683594 Z M 86.753906 6.964844 L 113.101563 -11.386719 L 126.433594 7.769531 Z M 86.742188 7.210938 L 126.429688 8.011719 L 112.335938 26.605469 Z M 86.535156 7.515625 L 112.121094 26.902344 L 98.035156 45.484375 Z M 86.277344 7.574219 L 97.773438 45.5625 L 75.738281 37.90625 Z M 85.945313 7.464844 L 75.417969 37.792969 L 53.371094 30.148438 Z M 85.949219 6.679688 L 54.328125 -17.285156 L 76.652344 -24.042969 Z M 99.328125 -30.90625 L 86.300781 6.582031 L 76.996094 -24.148438 Z M 85.796875 7.242188 L 53.226563 29.917969 L 53.695313 6.601563 Z M 85.804688 6.898438 L 53.699219 6.253906 L 54.171875 -17.070313 Z M 99.277344 -70.9375 L 105.554688 -65.671875 L 98.144531 -61.15625 L 66.734375 -58.785156 L 80.160156 -72.386719 Z M 16.089844 -29.402344 L 23.035156 -33.738281 L 25.039063 -25.320313 L 17.585938 5.289063 L 8.804688 -11.664063 Z M 8.097656 22.667969 L 17.570313 6.066406 L 23.792969 37.011719 L 21.457031 45.335938 L 14.6875 40.730469 Z M 76.953125 86.230469 L 64.105469 72.113281 L 95.402344 75.738281 L 102.601563 80.539063 L 96.125 85.554688 Z M 158.671875 40.390625 L 141.257813 48.261719 L 154.382813 19.621094 L 161.179688 14.25 L 163.941406 21.960938 Z M 155.886719 -41.386719 L 155.878906 -41.390625 L 139.347656 -62.882813 L 139.335938 -62.882813 L 139.335938 -62.90625 L 139.265625 -62.929688 L 139.273438 -62.945313 L 88.085938 -80.730469 L 88.066406 -80.691406 L 88 -80.699219 L 87.988281 -80.730469 L 87.722656 -80.648438 L 61.644531 -74.078125 L 36.222656 -65.058594 L 36.117188 -65.027344 L 36.117188 -65.023438 L 36.078125 -65.007813 L 36.054688 -64.960938 L 36.046875 -64.96875 L 3.3125 -21.78125 L 3.335938 -21.761719 L 3.335938 -21.753906 L 3.328125 -21.695313 L 3.285156 -21.691406 L 3.269531 -21.070313 L 1.492188 5.25 L 1.472656 5.308594 L 1.492188 5.324219 L 1.480469 5.421875 L 1.46875 5.433594 L 1.472656 5.433594 L 2.195313 32.230469 L 2.195313 32.484375 L 2.207031 32.484375 L 2.207031 32.546875 L 2.222656 32.554688 L 2.222656 32.570313 L 2.21875 32.582031 L 2.242188 32.605469 L 33.15625 77.023438 L 33.175781 77.046875 L 33.175781 77.054688 L 33.195313 77.046875 L 33.210938 77.046875 L 33.210938 77.066406 L 33.257813 77.09375 L 33.257813 77.101563 L 33.496094 77.183594 L 58.375 87.175781 L 58.390625 87.160156 L 58.492188 87.195313 L 58.496094 87.214844 L 58.554688 87.210938 L 83.859375 94.691406 L 84.445313 94.894531 L 84.464844 94.847656 L 84.519531 94.855469 L 84.535156 94.855469 L 84.535156 94.894531 L 136.40625 79.183594 L 136.40625 79.179688 L 136.445313 79.164063 L 136.457031 79.167969 L 136.484375 79.128906 L 136.488281 79.128906 L 136.550781 79.050781 L 153.835938 58.351563 L 169.050781 36.167969 L 169.222656 35.9375 L 169.1875 35.925781 L 169.203125 35.855469 L 169.253906 35.847656 L 170.328125 -18.320313 L 170.3125 -18.320313 L 170.324219 -18.390625 L 170.296875 -18.402344 L 170.304688 -18.410156 L 170.304688 -18.425781 "/>
</g>
</g>
<g clip-path="url(#clip3)" clip-rule="nonzero">
<g clip-path="url(#clip4)" clip-rule="nonzero">
<path style=" stroke:none;fill-rule:nonzero;fill:rgb(100%,100%,100%);fill-opacity:1;" d="M 52.125 30.851563 C 52.523438 31.421875 53.277344 31.585938 53.796875 31.214844 C 54.328125 30.851563 54.4375 30.089844 54.035156 29.515625 C 53.636719 28.945313 52.886719 28.78125 52.363281 29.148438 C 51.839844 29.515625 51.722656 30.277344 52.125 30.851563 "/>
</g>
</g>
<g clip-path="url(#clip5)" clip-rule="nonzero">
<g clip-path="url(#clip6)" clip-rule="nonzero">
<path style=" stroke:none;fill-rule:nonzero;fill:rgb(100%,100%,100%);fill-opacity:1;" d="M 62.707031 72.636719 C 63.128906 73.257813 63.949219 73.425781 64.519531 73.035156 C 65.085938 72.636719 65.199219 71.808594 64.765625 71.203125 C 64.339844 70.589844 63.535156 70.417969 62.964844 70.8125 C 62.394531 71.210938 62.28125 72.027344 62.707031 72.636719 "/>
</g>
</g>
<g clip-path="url(#clip7)" clip-rule="nonzero">
<g clip-path="url(#clip8)" clip-rule="nonzero">
<path style=" stroke:none;fill-rule:nonzero;fill:rgb(100%,100%,100%);fill-opacity:1;" d="M 25.265625 49.546875 C 25.707031 50.167969 26.527344 50.339844 27.097656 49.941406 C 27.683594 49.546875 27.804688 48.714844 27.363281 48.089844 C 26.933594 47.460938 26.105469 47.28125 25.527344 47.691406 C 24.957031 48.089844 24.832031 48.921875 25.265625 49.546875 "/>
</g>
</g>
<g clip-path="url(#clip9)" clip-rule="nonzero">
<g clip-path="url(#clip10)" clip-rule="nonzero">
<path style=" stroke:none;fill-rule:nonzero;fill:rgb(100%,100%,100%);fill-opacity:1;" d="M 32.140625 77.773438 C 32.621094 78.46875 33.535156 78.667969 34.179688 78.214844 C 34.828125 77.769531 34.957031 76.839844 34.464844 76.152344 C 33.992188 75.460938 33.078125 75.257813 32.441406 75.714844 C 31.785156 76.15625 31.65625 77.082031 32.140625 77.773438 "/>
</g>
</g>
<g clip-path="url(#clip11)" clip-rule="nonzero">
<g clip-path="url(#clip12)" clip-rule="nonzero">
<path style=" stroke:none;fill-rule:nonzero;fill:rgb(100%,100%,100%);fill-opacity:1;" d="M 57.183594 87.957031 C 57.722656 88.726563 58.742188 88.941406 59.453125 88.453125 C 60.175781 87.941406 60.320313 86.917969 59.789063 86.148438 C 59.257813 85.371094 58.226563 85.152344 57.507813 85.652344 C 56.796875 86.152344 56.652344 87.1875 57.183594 87.957031 "/>
</g>
</g>
<g clip-path="url(#clip13)" clip-rule="nonzero">
<g clip-path="url(#clip14)" clip-rule="nonzero">
<path style=" stroke:none;fill-rule:nonzero;fill:rgb(100%,100%,100%);fill-opacity:1;" d="M 67.234375 58.71875 C 67.828125 59.574219 68.949219 59.820313 69.75 59.257813 C 70.550781 58.703125 70.714844 57.566406 70.125 56.707031 C 69.53125 55.859375 68.390625 55.621094 67.601563 56.175781 C 66.804688 56.726563 66.644531 57.867188 67.234375 58.71875 "/>
</g>
</g>
<g clip-path="url(#clip15)" clip-rule="nonzero">
<g clip-path="url(#clip16)" clip-rule="nonzero">
<path style=" stroke:none;fill-rule:nonzero;fill:rgb(100%,100%,100%);fill-opacity:1;" d="M 31.230469 7.007813 C 31.820313 7.855469 32.949219 8.097656 33.746094 7.542969 C 34.539063 6.988281 34.703125 5.84375 34.109375 4.996094 C 33.523438 4.140625 32.390625 3.898438 31.589844 4.460938 C 30.800781 5.011719 30.636719 6.148438 31.230469 7.007813 "/>
</g>
</g>
<path style=" stroke:none;fill-rule:nonzero;fill:rgb(0%,19.999695%,63.136292%);fill-opacity:1;" d="M 120.179688 6.859375 L 128.574219 6.859375 C 129.644531 6.859375 130.511719 5.992188 130.511719 4.921875 L 130.511719 2.203125 L 118.894531 2.203125 C 116.761719 2.203125 115.03125 3.933594 115.03125 6.070313 L 115.03125 13.820313 C 115.03125 15.953125 116.761719 17.683594 118.894531 17.683594 L 128.574219 17.683594 C 129.644531 17.683594 130.511719 16.816406 130.511719 15.75 L 130.511719 13.027344 L 120.179688 13.027344 C 119.90625 13.027344 119.6875 12.808594 119.6875 12.535156 L 119.6875 12.039063 L 128.574219 12.039063 C 129.644531 12.039063 130.511719 11.175781 130.511719 10.105469 L 130.511719 7.847656 L 119.6875 7.847656 L 119.6875 7.351563 C 119.6875 7.082031 119.90625 6.859375 120.179688 6.859375 M 164.300781 13.820313 L 164.300781 9.78125 C 164.300781 8.714844 163.433594 7.847656 162.363281 7.847656 L 153.476563 7.847656 L 153.476563 7.351563 C 153.476563 7.082031 153.695313 6.859375 153.96875 6.859375 L 162.363281 6.859375 C 163.433594 6.859375 164.300781 5.992188 164.300781 4.921875 L 164.300781 2.203125 L 152.683594 2.203125 C 150.550781 2.203125 148.816406 3.933594 148.816406 6.070313 L 148.816406 10.105469 C 148.816406 11.175781 149.683594 12.039063 150.753906 12.039063 L 159.644531 12.039063 L 159.644531 12.535156 C 159.644531 12.808594 159.421875 13.027344 159.148438 13.027344 L 150.753906 13.027344 C 149.683594 13.027344 148.816406 13.894531 148.816406 14.964844 L 148.816406 17.683594 L 160.433594 17.683594 C 162.566406 17.683594 164.300781 15.953125 164.300781 13.820313 M 135.789063 2.203125 C 133.65625 2.203125 131.925781 3.933594 131.925781 6.070313 L 131.925781 17.683594 L 134.644531 17.683594 C 135.714844 17.683594 136.582031 16.816406 136.582031 15.75 L 136.582031 7.351563 C 136.582031 7.082031 136.800781 6.859375 137.074219 6.859375 L 137.566406 6.859375 L 137.566406 17.683594 L 139.824219 17.683594 C 140.894531 17.683594 141.761719 16.816406 141.761719 15.75 L 141.761719 7.351563 C 141.761719 7.082031 141.980469 6.859375 142.253906 6.859375 L 142.746094 6.859375 L 142.746094 17.683594 L 145.46875 17.683594 C 146.539063 17.683594 147.40625 16.816406 147.40625 15.75 L 147.40625 2.203125 Z M 102.792969 8.796875 L 102.792969 12.535156 C 102.792969 12.808594 103.011719 13.027344 103.285156 13.027344 L 108.464844 13.027344 C 108.738281 13.027344 108.960938 12.808594 108.960938 12.535156 L 108.960938 12.039063 L 103.78125 12.039063 L 103.78125 9.78125 C 103.78125 8.714844 104.644531 7.847656 105.714844 7.847656 L 111.683594 7.847656 C 112.75 7.847656 113.617188 8.714844 113.617188 9.78125 L 113.617188 15.75 C 113.617188 16.816406 112.75 17.683594 111.683594 17.683594 L 102.003906 17.683594 C 99.867188 17.683594 98.136719 15.953125 98.136719 13.820313 L 98.136719 6.070313 C 98.136719 3.933594 99.867188 2.203125 102.003906 2.203125 L 113.617188 2.203125 L 113.617188 4.921875 C 113.617188 5.992188 112.75 6.859375 111.683594 6.859375 L 104.730469 6.859375 C 103.660156 6.859375 102.792969 7.726563 102.792969 8.796875 "/>
<path style=" stroke:none;fill-rule:nonzero;fill:rgb(34.098816%,34.498596%,35.299683%);fill-opacity:1;" d="M 102.632813 27.109375 L 101.019531 27.109375 L 101.019531 25.597656 L 102.632813 25.597656 Z M 101.410156 31.371094 L 101.410156 29.65625 L 100.214844 29.65625 C 99.472656 29.65625 98.925781 30.476563 98.925781 31.488281 C 98.925781 32.398438 99.445313 33.152344 100.175781 33.152344 C 100.941406 33.152344 101.410156 32.4375 101.410156 31.371094 M 100.1875 27.109375 L 98.574219 27.109375 L 98.574219 25.597656 L 100.1875 25.597656 Z M 105.542969 35.480469 L 103.710938 35.480469 C 102.671875 35.480469 101.941406 34.945313 101.527344 33.882813 C 101.199219 34.390625 100.578125 34.660156 99.679688 34.660156 C 98.121094 34.660156 97.117188 33.308594 97.117188 31.515625 C 97.117188 29.578125 98.09375 28.332031 99.808594 28.332031 C 99.808594 28.316406 100.96875 28.316406 103.28125 28.316406 L 103.28125 32.410156 C 103.28125 33.269531 103.722656 33.738281 104.609375 33.738281 L 105.542969 33.738281 "/>
<path style=" stroke:none;fill-rule:nonzero;fill:rgb(34.098816%,34.498596%,35.299683%);fill-opacity:1;" d="M 108.976563 37.640625 L 107.367188 37.640625 L 107.367188 36.132813 L 108.976563 36.132813 Z M 111.070313 35.480469 L 105.21875 35.480469 L 105.21875 33.738281 L 106.414063 33.738281 C 107.027344 33.738281 107.324219 33.320313 107.324219 32.488281 L 107.324219 29.589844 L 109.160156 29.589844 L 109.160156 32.425781 C 109.160156 32.90625 109.09375 33.335938 108.949219 33.738281 L 111.070313 33.738281 Z M 106.53125 37.640625 L 104.921875 37.640625 L 104.921875 36.132813 L 106.53125 36.132813 Z M 106.53125 37.640625 "/>
<path style=" stroke:none;fill-rule:nonzero;fill:rgb(34.098816%,34.498596%,35.299683%);fill-opacity:1;" d="M 121.535156 35.480469 L 110.8125 35.480469 L 110.8125 33.738281 L 117.960938 33.738281 C 117.871094 33.035156 117.585938 32.453125 117.128906 31.996094 C 116.636719 31.5 116.039063 31.253906 115.335938 31.253906 L 112.058594 31.253906 L 114.632813 27.109375 L 116.804688 27.109375 L 115.179688 29.578125 L 116.152344 29.578125 C 116.789063 29.644531 117.363281 29.8125 117.84375 30.097656 C 119.003906 30.789063 119.675781 31.996094 119.871094 33.738281 L 121.535156 33.738281 "/>
<path style=" stroke:none;fill-rule:nonzero;fill:rgb(34.098816%,34.498596%,35.299683%);fill-opacity:1;" d="M 124.984375 37.640625 L 123.359375 37.640625 L 123.359375 36.132813 L 124.984375 36.132813 Z M 125.101563 32.972656 C 125.101563 33.660156 124.90625 34.230469 124.527344 34.6875 C 124.101563 35.222656 123.503906 35.480469 122.746094 35.480469 L 121.199219 35.480469 L 121.199219 33.738281 L 122.359375 33.738281 C 122.96875 33.738281 123.28125 33.308594 123.28125 32.464844 L 123.28125 29.589844 L 125.101563 29.589844 Z M 122.527344 37.640625 L 120.914063 37.640625 L 120.914063 36.132813 L 122.527344 36.132813 Z M 122.527344 37.640625 "/>
<path style=" stroke:none;fill-rule:nonzero;fill:rgb(34.098816%,34.498596%,35.299683%);fill-opacity:1;" d="M 131.730469 35.480469 L 129.71875 35.480469 C 129.417969 36.910156 128.246094 37.625 126.179688 37.625 L 126.179688 36.15625 C 127.378906 36.15625 127.976563 35.585938 127.976563 34.441406 L 127.976563 29.589844 L 129.808594 29.589844 L 129.808594 33.738281 L 131.730469 33.738281 "/>
<path style=" stroke:none;fill-rule:nonzero;fill:rgb(34.098816%,34.498596%,35.299683%);fill-opacity:1;" d="M 137.179688 33.699219 C 137.179688 32.671875 136.789063 32.152344 136.023438 32.152344 L 135.894531 32.152344 C 135.230469 32.152344 134.773438 32.761719 134.773438 33.621094 C 134.773438 34.507813 135.214844 35.117188 135.996094 35.117188 C 136.710938 35.117188 137.179688 34.546875 137.179688 33.699219 M 138.984375 33.636719 C 138.984375 35.378906 137.816406 36.597656 135.996094 36.597656 C 134.890625 36.597656 134.058594 36.222656 133.527344 35.480469 L 131.1875 35.480469 L 131.1875 33.738281 L 132.992188 33.738281 C 132.992188 31.878906 134.058594 30.695313 135.933594 30.695313 C 137.804688 30.695313 138.984375 31.851563 138.984375 33.636719 "/>
<path style=" stroke:none;fill-rule:nonzero;fill:rgb(34.098816%,34.498596%,35.299683%);fill-opacity:1;" d="M 146.878906 33.347656 C 146.878906 33.984375 146.671875 34.492188 146.242188 34.894531 C 145.8125 35.285156 145.277344 35.480469 144.644531 35.480469 L 140.324219 35.480469 L 140.324219 33.738281 L 142.265625 33.738281 L 140.625 27.980469 L 142.550781 27.980469 L 144.160156 33.738281 C 144.773438 33.726563 145.085938 33.285156 145.085938 32.410156 L 145.085938 27.109375 L 146.878906 27.109375 Z M 142.640625 27.210938 L 140.3125 27.210938 L 140.3125 26.546875 L 140.820313 26.546875 C 140.78125 26.429688 140.769531 26.316406 140.769531 26.210938 C 140.769531 25.625 141.183594 25.171875 141.742188 25.171875 C 142.160156 25.171875 142.445313 25.378906 142.613281 25.78125 L 142.027344 26.054688 C 141.976563 25.871094 141.886719 25.78125 141.742188 25.78125 C 141.550781 25.78125 141.445313 25.910156 141.445313 26.171875 C 141.445313 26.367188 141.511719 26.496094 141.625 26.535156 L 142.640625 26.535156 "/>
<path style=" stroke:none;fill-rule:nonzero;fill:rgb(34.098816%,34.498596%,35.299683%);fill-opacity:1;" d="M 148.207031 35.480469 L 150.027344 35.480469 L 150.027344 27.09375 L 148.207031 27.09375 Z M 148.207031 35.480469 "/>
<path style=" stroke:none;fill-rule:nonzero;fill:rgb(34.098816%,34.498596%,35.299683%);fill-opacity:1;" d="M 160.585938 40.34375 L 158.972656 40.34375 L 158.972656 38.847656 L 160.585938 38.847656 Z M 158.140625 40.34375 L 156.515625 40.34375 L 156.515625 38.847656 L 158.140625 38.847656 Z M 165.160156 35.480469 L 165.070313 35.480469 C 164.015625 35.480469 163.238281 35.222656 162.730469 34.714844 C 162.328125 36.46875 160.480469 37.640625 158.363281 37.640625 C 155.761719 37.640625 153.707031 35.726563 153.707031 33.207031 L 153.707031 31.644531 L 155.527344 31.644531 L 155.527344 33.035156 C 155.527344 34.777344 156.554688 35.949219 158.402344 35.949219 C 159.804688 35.949219 161.144531 35.0625 161.144531 33.855469 C 161.144531 33.164063 160.558594 32.710938 159.933594 32.710938 C 159.832031 32.710938 159.726563 32.726563 159.621094 32.75 L 159.621094 31.164063 C 159.621094 31.152344 159.882813 31.152344 160.414063 31.152344 C 161.730469 31.152344 162.703125 31.75 163.328125 32.945313 C 163.640625 33.542969 164.09375 33.738281 164.875 33.738281 L 165.160156 33.738281 "/>
<path style=" stroke:none;fill-rule:nonzero;fill:rgb(34.098816%,34.498596%,35.299683%);fill-opacity:1;" d="M 168.777344 37.640625 L 167.164063 37.640625 L 167.164063 36.132813 L 168.777344 36.132813 Z M 168.882813 32.972656 C 168.882813 33.660156 168.6875 34.230469 168.308594 34.6875 C 167.878906 35.222656 167.28125 35.480469 166.527344 35.480469 L 164.980469 35.480469 L 164.980469 33.738281 L 166.136719 33.738281 C 166.75 33.738281 167.0625 33.308594 167.0625 32.464844 L 167.0625 29.589844 L 168.882813 29.589844 "/>
<path style=" stroke:none;fill-rule:nonzero;fill:rgb(34.098816%,34.498596%,35.299683%);fill-opacity:1;" d="M 176.644531 35.480469 L 170.101563 35.480469 L 170.101563 33.738281 L 174.824219 33.738281 C 174.824219 31.917969 173.835938 31.113281 171.519531 31.113281 L 171.519531 29.589844 C 172.664063 29.589844 173.46875 29.667969 173.953125 29.835938 C 175.71875 30.460938 176.644531 31.761719 176.644531 33.726563 "/>
<path style=" stroke:none;fill-rule:nonzero;fill:rgb(34.098816%,34.498596%,35.299683%);fill-opacity:1;" d="M 197.652344 35.480469 L 187.839844 35.480469 C 187.671875 35.765625 187.472656 36.039063 187.253906 36.300781 C 186.472656 37.183594 185.484375 37.625 184.277344 37.640625 C 183.121094 37.640625 182.144531 37.210938 181.351563 36.363281 C 180.558594 35.519531 180.167969 34.480469 180.167969 33.21875 L 180.167969 29.578125 L 181.988281 29.578125 L 181.988281 33.050781 C 181.988281 33.84375 182.171875 34.492188 182.519531 35.027344 C 182.925781 35.636719 183.507813 35.949219 184.277344 35.949219 C 185.03125 35.949219 185.617188 35.636719 186.03125 35.027344 C 186.382813 34.492188 186.550781 33.84375 186.550781 33.050781 L 186.550781 29.578125 L 188.382813 29.578125 L 188.382813 29.589844 L 188.394531 29.589844 L 188.394531 32.425781 C 188.394531 32.542969 188.394531 32.671875 188.382813 32.789063 L 188.382813 33.21875 C 188.382813 33.402344 188.371094 33.570313 188.359375 33.738281 L 189.335938 33.738281 C 189.945313 33.738281 190.257813 33.347656 190.257813 32.570313 L 190.257813 29.589844 L 192.078125 29.589844 L 192.078125 32.425781 C 192.078125 32.90625 191.996094 33.347656 191.855469 33.738281 L 193.011719 33.738281 C 193.621094 33.738281 193.9375 33.347656 193.9375 32.570313 L 193.9375 29.589844 L 195.769531 29.589844 L 195.769531 32.414063 C 195.769531 32.894531 195.691406 33.335938 195.535156 33.738281 L 197.652344 33.738281 "/>
<path style=" stroke:none;fill-rule:nonzero;fill:rgb(34.098816%,34.498596%,35.299683%);fill-opacity:1;" d="M 202.894531 33.699219 C 202.894531 32.671875 202.503906 32.152344 201.738281 32.152344 L 201.609375 32.152344 C 200.945313 32.152344 200.503906 32.777344 200.503906 33.621094 C 200.503906 34.492188 200.945313 35.117188 201.710938 35.117188 C 202.453125 35.117188 202.894531 34.570313 202.894531 33.699219 M 206.222656 35.480469 L 204.144531 35.480469 C 203.609375 36.222656 202.789063 36.597656 201.710938 36.597656 C 200.605469 36.597656 199.789063 36.222656 199.242188 35.480469 L 197.253906 35.480469 L 197.253906 33.738281 L 198.710938 33.738281 C 198.710938 31.867188 199.773438 30.695313 201.660156 30.695313 C 203.558594 30.695313 204.703125 31.828125 204.703125 33.738281 L 206.222656 33.738281 "/>
<path style=" stroke:none;fill-rule:nonzero;fill:rgb(34.098816%,34.498596%,35.299683%);fill-opacity:1;" d="M 209.632813 37.640625 L 208.019531 37.640625 L 208.019531 36.132813 L 209.632813 36.132813 Z M 211.722656 35.480469 L 205.875 35.480469 L 205.875 33.738281 L 207.070313 33.738281 C 207.679688 33.738281 207.980469 33.320313 207.980469 32.488281 L 207.980469 29.589844 L 209.8125 29.589844 L 209.8125 32.425781 C 209.8125 32.90625 209.75 33.335938 209.605469 33.738281 L 211.722656 33.738281 Z M 207.1875 37.640625 L 205.574219 37.640625 L 205.574219 36.132813 L 207.1875 36.132813 Z M 207.1875 37.640625 "/>
<path style=" stroke:none;fill-rule:nonzero;fill:rgb(34.098816%,34.498596%,35.299683%);fill-opacity:1;" d="M 217.121094 37.640625 L 215.496094 37.640625 L 215.496094 36.132813 L 217.121094 36.132813 Z M 220.644531 35.480469 L 211.347656 35.480469 L 211.347656 33.738281 L 218.707031 33.738281 C 218.628906 32.269531 217.511719 31.125 215.992188 31.125 C 215.210938 31.125 214.328125 31.527344 213.804688 32.0625 C 213.625 31.8125 213.324219 31.410156 212.894531 30.828125 C 213.78125 29.902344 214.859375 29.449219 216.121094 29.449219 C 219.097656 29.460938 220.644531 31.488281 220.644531 34.882813 "/>
<path style=" stroke:none;fill-rule:nonzero;fill:rgb(34.098816%,34.498596%,35.299683%);fill-opacity:1;" d="M 229.667969 27.109375 L 228.058594 27.109375 L 228.058594 25.597656 L 229.667969 25.597656 Z M 228.445313 31.371094 L 228.445313 29.65625 L 227.25 29.65625 C 226.507813 29.65625 225.960938 30.476563 225.960938 31.488281 C 225.960938 32.398438 226.484375 33.152344 227.210938 33.152344 C 227.976563 33.152344 228.445313 32.4375 228.445313 31.371094 M 227.222656 27.109375 L 225.613281 27.109375 L 225.613281 25.597656 L 227.222656 25.597656 Z M 232.578125 35.480469 L 230.746094 35.480469 C 229.707031 35.480469 228.980469 34.945313 228.5625 33.882813 C 228.238281 34.390625 227.613281 34.660156 226.71875 34.660156 C 225.15625 34.660156 224.15625 33.308594 224.15625 31.515625 C 224.15625 29.578125 225.128906 28.332031 226.847656 28.332031 C 226.847656 28.316406 228.003906 28.316406 230.316406 28.316406 L 230.316406 32.410156 C 230.316406 33.269531 230.761719 33.738281 231.644531 33.738281 L 232.578125 33.738281 "/>
<path style=" stroke:none;fill-rule:nonzero;fill:rgb(34.098816%,34.498596%,35.299683%);fill-opacity:1;" d="M 236.015625 37.640625 L 234.402344 37.640625 L 234.402344 36.132813 L 236.015625 36.132813 Z M 238.105469 35.480469 L 232.257813 35.480469 L 232.257813 33.738281 L 233.453125 33.738281 C 234.0625 33.738281 234.363281 33.320313 234.363281 32.488281 L 234.363281 29.589844 L 236.195313 29.589844 L 236.195313 32.425781 C 236.195313 32.90625 236.132813 33.335938 235.988281 33.738281 L 238.105469 33.738281 Z M 233.570313 37.640625 L 231.960938 37.640625 L 231.960938 36.132813 L 233.570313 36.132813 Z M 233.570313 37.640625 "/>
<path style=" stroke:none;fill-rule:nonzero;fill:rgb(34.098816%,34.498596%,35.299683%);fill-opacity:1;" d="M 243.398438 33.699219 C 243.398438 32.671875 243.007813 32.152344 242.242188 32.152344 L 242.113281 32.152344 C 241.449219 32.152344 241.007813 32.777344 241.007813 33.621094 C 241.007813 34.492188 241.449219 35.117188 242.214844 35.117188 C 242.957031 35.117188 243.398438 34.570313 243.398438 33.699219 M 246.726563 35.480469 L 244.648438 35.480469 C 244.113281 36.222656 243.296875 36.597656 242.214844 36.597656 C 241.109375 36.597656 240.292969 36.222656 239.746094 35.480469 L 237.757813 35.480469 L 237.757813 33.738281 L 239.214844 33.738281 C 239.214844 31.867188 240.277344 30.695313 242.164063 30.695313 C 244.0625 30.695313 245.207031 31.828125 245.207031 33.738281 L 246.726563 33.738281 "/>
<path style=" stroke:none;fill-rule:nonzero;fill:rgb(34.098816%,34.498596%,35.299683%);fill-opacity:1;" d="M 250.121094 37.640625 L 248.496094 37.640625 L 248.496094 36.132813 L 250.121094 36.132813 Z M 250.238281 32.972656 C 250.238281 33.660156 250.046875 34.230469 249.667969 34.6875 C 249.238281 35.222656 248.640625 35.480469 247.886719 35.480469 L 246.339844 35.480469 L 246.339844 33.738281 L 247.496094 33.738281 C 248.105469 33.738281 248.421875 33.308594 248.421875 32.464844 L 248.421875 29.589844 L 250.238281 29.589844 Z M 247.664063 37.640625 L 246.054688 37.640625 L 246.054688 36.132813 L 247.664063 36.132813 Z M 247.664063 37.640625 "/>
<path style=" stroke:none;fill-rule:nonzero;fill:rgb(34.098816%,34.498596%,35.299683%);fill-opacity:1;" d="M 258 35.480469 L 251.460938 35.480469 L 251.460938 33.738281 L 256.179688 33.738281 C 256.179688 31.917969 255.191406 31.113281 252.878906 31.113281 L 252.878906 29.589844 C 254.023438 29.589844 254.828125 29.667969 255.308594 29.835938 C 257.078125 30.460938 258 31.761719 258 33.726563 "/>
<path style=" stroke:none;fill-rule:nonzero;fill:rgb(34.098816%,34.498596%,35.299683%);fill-opacity:1;" d="M 263.242188 35.480469 L 261.523438 35.480469 C 260.132813 35.480469 259.328125 34.675781 259.328125 33.335938 L 259.328125 27.09375 L 261.148438 27.09375 L 261.148438 32.386719 C 261.148438 33.269531 261.371094 33.738281 262.710938 33.738281 L 263.242188 33.738281 "/>
<path style=" stroke:none;fill-rule:nonzero;fill:rgb(34.098816%,34.498596%,35.299683%);fill-opacity:1;" d="M 271.992188 35.480469 L 262.527344 35.480469 L 262.527344 33.738281 L 270.015625 33.738281 C 269.835938 32.320313 268.753906 31.253906 267.378906 31.253906 L 264.101563 31.253906 L 266.699219 27.109375 L 268.855469 27.109375 L 267.21875 29.578125 L 268.21875 29.578125 C 270.703125 29.835938 271.992188 31.75 271.992188 34.804688 "/>
<g clip-path="url(#clip17)" clip-rule="nonzero">
<path style=" stroke:none;fill-rule:nonzero;fill:rgb(34.098816%,34.498596%,35.299683%);fill-opacity:1;" d="M 275.140625 35.480469 L 273.320313 35.480469 L 273.320313 27.09375 L 275.140625 27.09375 Z M 275.375 26.378906 L 273.046875 26.378906 L 273.046875 25.71875 L 273.554688 25.71875 C 273.515625 25.601563 273.503906 25.484375 273.503906 25.378906 C 273.503906 24.792969 273.917969 24.339844 274.476563 24.339844 C 274.894531 24.339844 275.179688 24.546875 275.347656 24.949219 L 274.761719 25.222656 C 274.710938 25.039063 274.621094 24.949219 274.476563 24.949219 C 274.28125 24.949219 274.175781 25.082031 274.175781 25.339844 C 274.175781 25.535156 274.242188 25.664063 274.359375 25.703125 L 275.375 25.703125 "/>
</g>
</g>
</svg>
